Coordinates
version=1
nRows=11
nColumns=33
inDegrees=yes

Units are S.I. units (second, meters, Newtons, ...)
Angles are in degrees.

endheader
time	ground_thorax_rot_x	ground_thorax_rot_y	ground_thorax_rot_z	ground_thorax_tx	ground_thorax_ty	ground_thorax_tz	clav_prot_r	clav_elev_r	scapula_abduction_r	scapula_elevation_r	scapula_upward_rot_r	scapula_winging_r	shoulder_elv_r	plane_of_elev_r	axial_rot_r	elbow_flexion_r	pro_sup_r	wrist_flex_r	wrist_dev_r	clav_prot_l	clav_elev_l	scapula_abduction_l	scapula_elevation_l	scapula_upward_rot_l	scapula_winging_l	shoulder_elv_l	plane_of_elev_l	axial_rot_l	elbow_flexion_l	pro_sup_l	wrist_flex_l	wrist_dev_l	
4.5500	-0.235898	0.724542	13.135190	-0.113352	1.027844	0.018573	7.898358	-10.562358	13.745092	-3.264002	-0.369256	-2.051792	-44.204242	-75.249485	95.549485	-77.617520	-147.156602	43.280830	-24.030365	11.004867	-3.307639	-14.867440	-19.865885	-37.919681	-0.507625	62.863260	-29.261163	5.488683	70.385087	19.172805	7.848027	-22.558593	
4.5600	-0.279943	0.781079	13.111477	-0.113317	1.027827	0.018667	8.010161	-10.684610	14.016475	-3.441883	-0.208585	-2.112260	-43.413346	-75.173868	96.159730	-78.376060	-147.734220	41.753961	-23.427467	11.227673	-3.466498	-15.243215	-19.639697	-37.788415	-0.305947	63.081283	-28.618417	5.715269	70.260556	18.911719	9.122088	-21.569358	
4.5700	-0.329201	0.844402	13.095300	-0.113303	1.027798	0.018732	8.129177	-10.811328	14.291395	-3.615497	-0.066912	-2.170875	-42.473829	-75.078697	96.880228	-79.148102	-148.394274	39.999452	-22.606566	11.470682	-3.642145	-15.656635	-19.399234	-37.663044	-0.087150	63.286477	-27.932936	5.975016	70.078258	18.632234	10.519133	-20.458972	
4.5800	-0.393813	0.911302	13.102288	-0.113281	1.027743	0.018769	8.247485	-10.938646	14.555720	-3.781252	0.055400	-2.223673	-41.390962	-74.958555	97.704199	-79.912963	-149.109051	38.111825	-21.526566	11.729127	-3.822142	-16.094777	-19.149671	-37.528244	0.144574	63.468851	-27.231184	6.259555	69.827224	18.356853	11.931511	-19.312912	
4.5900	-0.471988	0.986863	13.116772	-0.113261	1.027683	0.018774	8.364317	-11.078786	14.809828	-3.951589	0.161054	-2.266071	-40.150262	-74.812499	98.634763	-80.647662	-149.855877	36.186218	-20.251556	12.007062	-4.009694	-16.561564	-18.880211	-37.367931	0.394294	63.624483	-26.504090	6.548964	69.476246	18.100999	13.300460	-18.205436	
4.6000	-0.570102	1.065927	13.141801	-0.113230	1.027618	0.018749	8.479238	-11.229168	15.060477	-4.130839	0.266317	-2.302059	-38.796996	-74.638784	99.650832	-81.333238	-150.614859	34.255721	-18.824726	12.300116	-4.200876	-17.048262	-18.593070	-37.178049	0.657999	63.753383	-25.764377	6.846370	69.020823	17.868158	14.606356	-17.158359	
4.6100	-0.680934	1.149728	13.161304	-0.113187	1.027566	0.018686	8.594925	-11.384509	15.328303	-4.327955	0.404755	-2.342916	-37.375515	-74.432208	100.725074	-81.941658	-151.362329	32.339742	-17.334878	12.606543	-4.397140	-17.550566	-18.282298	-36.949033	0.935605	63.844801	-24.996208	7.154364	68.448099	17.657041	15.860137	-16.197188	
4.6200	-0.804165	1.236533	13.170921	-0.113117	1.027530	0.018589	8.716497	-11.543517	15.634370	-4.552332	0.602555	-2.397800	-35.984686	-74.183884	101.768924	-82.447801	-152.051231	30.513611	-15.853332	12.915843	-4.600886	-18.048451	-17.942654	-36.673011	1.218788	63.909676	-24.212039	7.455518	67.757260	17.480308	17.014402	-15.349081	
4.6300	-0.935054	1.323734	13.164510	-0.113026	1.027497	0.018458	8.851311	-11.693149	15.996782	-4.796443	0.871250	-2.479959	-34.621815	-73.884258	102.787450	-82.848271	-152.670459	28.745026	-14.341749	13.232131	-4.808250	-18.549247	-17.577136	-36.349292	1.511468	63.938185	-23.403233	7.762941	66.946092	17.337180	18.095154	-14.615998	
4.6400	-1.075668	1.409019	13.154320	-0.112921	1.027475	0.018290	9.007429	-11.840640	16.425263	-5.063041	1.202260	-2.589420	-33.340912	-73.534991	103.731852	-83.125016	-153.210523	27.041582	-12.854488	13.550027	-5.027266	-19.047442	-17.187121	-35.995939	1.807734	63.955933	-22.585587	8.057475	66.026146	17.225146	19.112758	-13.954077	
4.6500	-1.224207	1.489360	13.132130	-0.112804	1.027420	0.018086	9.185286	-11.965326	16.919533	-5.331810	1.592963	-2.735262	-32.061572	-73.126811	104.686609	-83.299047	-153.705820	25.294028	-11.290141	13.883011	-5.242121	-19.568645	-16.791347	-35.622924	2.118067	63.948926	-21.738234	8.367531	65.010016	17.123938	20.135245	-13.330862	
